<?xml version="1.0" encoding="utf-8"?>
<!-- Generator: Adobe Illustrator 22.0.1, SVG Export Plug-In . SVG Version: 6.00 Build 0)  -->
<svg version="1.1" id="Layer_1" xmlns="http://www.w3.org/2000/svg" xmlns:xlink="http://www.w3.org/1999/xlink" x="0px" y="0px"
	 viewBox="0 0 70.8 82.4" style="enable-background:new 0 0 70.8 82.4;" xml:space="preserve">
<style type="text/css">
	.st0{fill:#FFFFFF;}
	.st1{fill:#FF659E;}
	.st2{fill:#ED1261;}
	.st3{fill:#584B82;}
</style>
<g id="layer101">
	<path class="st0" d="M18.5,72.1l-7.9-8l2.9-3l2.9-3l-7.7-7.8L1,42.5l2.9-2.8c1.6-1.6,2.7-3.4,2.5-4c-0.2-0.6,0.9-2.5,2.6-4.1l3-2.9
		l3,2.9l3,2.9l8.5-8.4l8.5-8.4l-2.5-2.6C31.1,13.7,30,12,30,11.5c0-1.1,5.4-5.4,6.7-5.4c0.4,0,2-1.2,3.5-2.7l2.9-2.7l8.1,8.2
		l8.2,8.1l-2.9,3.1l-2.9,3l7.2,7.3c4,4,7.2,7.7,7.2,8.3s-0.9,1.9-2,2.9s-2,2.6-2,3.5s-1.4,2.9-3,4.5l-3,2.9l-3-2.9l-3-2.9l-8.5,8.4
		l-8.4,8.4l3.2,2.7l3.2,2.7L38.6,72c-1.7,1.7-3.7,3.1-4.6,3.1s-2.7,1.1-4,2.5s-2.6,2.5-2.9,2.5C26.7,80.1,22.9,76.5,18.5,72.1z"/>
</g>
<g id="layer102">
	<path class="st1" d="M18.5,72.1l-7.9-8l2.9-3l2.9-3l-7.7-7.8L1,42.5l3-2.9l3-2.9l8,7.9l8,7.9l-2.7,2.8l-2.7,2.8l8.1,8.3l8.1,8.2
		l-3.3,2.8c-1.8,1.5-3.4,2.7-3.7,2.7C26.6,80.1,22.9,76.5,18.5,72.1z"/>
	<path class="st2" d="M37.4,72.4c2.9-3.2,2.9-3.3,1.1-5.5l-1.9-2.3l2.4,2.3l2.5,2.2L38,72.4l-3.5,3.2L37.4,72.4z"/>
	<path class="st2" d="M43.2,54.6l8.7-8.9l3.1,2.9l3,2.9l3.3-2.9l3.2-3l-3.2,3.5L58,52.5l-3-2.9l-3-2.9l-8.8,8.4l-8.7,8.5L43.2,54.6z
		"/>
	<path class="st2" d="M33.1,49.6l3-5.4L29,43.9l-7.1-0.3l9.7-9.5c8-7.8,9.3-8.8,7.4-5.5c-1.3,2.2-2.7,4.4-3.2,5
		c-2.3,2.6-0.7,3.5,6.4,3.5h7.3l-9,9c-4.9,5-9.3,9-9.7,9C30.3,55.1,31.4,52.6,33.1,49.6z"/>
	<path class="st1" d="M55.1,36.7L47,28.6l2.7-2.8l2.8-2.7l-8.2-8.3l-8.1-8.2l3.5-2.9l3.5-2.9l8.1,8.1l8.1,8.1l-2.9,3.1l-2.9,3
		l7.2,7.3c4,4,7.2,7.6,7.2,8.1c0,0.4-1.1,2.1-2.4,3.6l-2.3,2.8L55.1,36.7z"/>
	<path class="st2" d="M6,35.3c0-0.5,1.4-2.1,3-3.7l3-2.9l3,2.9l3,2.9l8.5-8.4l8.5-8.4l-2.8-3.1l-2.7-3l3.3,3l3.3,2.9l-9,9l-9,9
		L15,32.6l-3.1-3l-3,3.3C7.3,34.7,6,35.8,6,35.3z"/>
</g>
<g id="layer103">
	<path class="st1" d="M18.5,72.1l-7.9-8l2.9-3l2.9-3l-7.7-7.8L1,42.5l3.2-2.9l3.3-3l-2.8,3l-2.7,3l7.7,7.7l7.7,7.8l-2.9,3l-2.9,3.1
		l7.7,7.6l7.6,7.7l2.9-2.7c1.5-1.5,3.1-2.7,3.5-2.7s-0.8,1.4-2.6,3c-1.9,1.7-3.6,3-3.9,3C26.6,80.1,22.9,76.5,18.5,72.1z"/>
	<path class="st1" d="M37.4,72.4c2.9-3.2,2.9-3.3,1.1-5.5l-1.9-2.3l2.4,2.3l2.5,2.2L38,72.4l-3.5,3.2L37.4,72.4z"/>
	<path class="st1" d="M43.2,54.6l8.7-8.9l3.1,2.9l3,2.9l3.3-2.9l3.2-3l-3.2,3.5L58,52.5l-3-2.9l-3-2.9l-8.8,8.4l-8.7,8.5L43.2,54.6z
		"/>
	<path class="st3" d="M33.1,49.6l3-5.4L29,43.9l-7.1-0.3l9.7-9.5c8-7.8,9.3-8.8,7.4-5.5c-1.3,2.2-2.7,4.4-3.2,5
		c-2.3,2.6-0.7,3.5,6.4,3.5h7.3l-9,9c-4.9,5-9.3,9-9.7,9C30.3,55.1,31.4,52.6,33.1,49.6z"/>
	<path class="st1" d="M63,44.4c0-0.5,1.2-2,2.8-3.4l2.7-2.4l-2.5,3c-1.4,1.7-2.6,3.2-2.7,3.4C63.1,45.2,63,45,63,44.4z"/>
	<path class="st1" d="M6,35.3c0-0.5,1.4-2.1,3-3.7l3-2.9l3,2.9l3,2.9l8.5-8.4l8.5-8.4l-2.8-3.1l-2.7-3l3.3,3l3.3,2.9l-9,9l-9,9
		L15,32.6l-3.1-3l-3,3.3C7.3,34.7,6,35.8,6,35.3z"/>
	<path class="st1" d="M53.4,24c-0.3-0.6,0.7-2.4,2.2-4l2.8-3l-7.7-7.6l-7.6-7.7l-2.9,2.7c-1.5,1.5-3.1,2.7-3.5,2.7s0.9-1.4,2.8-3.2
		l3.6-3.1l8.2,8.1l8.1,8.1l-2.8,3c-1.5,1.6-2.5,3.4-2.2,4c0.4,0.6,0.5,1.1,0.2,1.1C54.3,25.1,53.8,24.6,53.4,24z"/>
</g>
</svg>
