<?xml version="1.0" encoding="utf-8"?>
<!-- Generator: Adobe Illustrator 22.0.1, SVG Export Plug-In . SVG Version: 6.00 Build 0)  -->
<svg version="1.1" id="Layer_1" xmlns="http://www.w3.org/2000/svg" xmlns:xlink="http://www.w3.org/1999/xlink" x="0px" y="0px"
	 viewBox="0 0 399 81.8" style="enable-background:new 0 0 399 81.8;" xml:space="preserve">
<style type="text/css">
	.st0{fill:#DC2055;}
	.st1{fill:#FFFFFF;}
	.st2{fill:#ED1261;}
	.st3{fill:#5B215C;}
</style>
<g id="layer101">
	<path class="st0" d="M150.7,51.1L136,36.3v13.3v13.2h-4.5H127V38.7V14.6l14.8,14.1l14.7,14.1l0.3-12l0.3-12h4.4h4.5v23.5
		c0,12.9-0.1,23.5-0.3,23.5C165.6,65.8,158.9,59.2,150.7,51.1z"/>
	<path class="st0" d="M85,53.3v-9.5h3.2h3.2l-3.2-3.3C85.1,37.3,85,37,85,28v-9.2h15.5H116v4.5v4.5h-11H94v4v4h8h8v4.5v4.5h-8h-8v4
		v4h11h11v5v5h-15.5H85V53.3z"/>
	<path class="st0" d="M177,53.3v-9.5h3.2h3.2l-3.2-3.3C177.1,37.3,177,37,177,28v-9.2h15.5H208v4.5v4.5h-11h-11v4v3.9l8.3,0.3
		l8.2,0.3l0.3,4.3l0.3,4.2h-8.5H186v4v4h11h11v5v5h-15.5H177V53.3z"/>
	<path class="st0" d="M219,53.3v-9.5h3.2h3.2l-3.2-3.3C219.1,37.3,219,37,219,28v-9.2h12.9c11.7,0,13.1,0.2,16.2,2.3
		c4.1,2.8,5.9,6,5.9,11c0,4.5-1.3,7.4-4.7,10.2l-2.5,2.1l4.6,9.2l4.6,9.2h-5.4h-5.4l-4.6-9l-4.7-9H232h-4v9v9h-4.5H219V53.3z
		 M243.8,34.6c1.6-1.6,1.5-3.3-0.4-5.2c-1.1-1.2-3.5-1.6-8.5-1.6H228v4v4h7.3C239.6,35.8,243.1,35.3,243.8,34.6z"/>
	<path class="st1" d="M278.9,61.4c-6.6-1.8-10.4-4.9-13.5-11.1c-5.5-11.3-1.6-23.1,9.5-28.8c5-2.4,6.5-2.7,16.3-2.7H302v4.5v4.5
		h-9.8c-11.3,0-15.4,1.6-18.4,7.1c-2.2,4.1-2.3,7.1-0.3,10.9c2.7,5.2,6.1,7,13.1,7h6.4V49c0-2.7-0.7-4.5-2.1-5.8
		c-1.2-1-3-3.1-4.1-4.6l-1.9-2.8h8.5h8.6v13.5v13.5l-9.2-0.1C287.7,62.7,281.4,62.1,278.9,61.4z"/>
	<path class="st1" d="M325,54v-8.8l-7-6.9l-7-6.9v-6.6v-6.5l9.4,9.4l9.3,9.3l8.8-9.1c4.8-5,9.2-9.1,9.6-9.1c0.5,0,0.9,2.8,0.9,6.3
		v6.3l-7,6.9l-7,6.9V54v8.8h-5h-5L325,54L325,54z"/>
	<path class="st1" d="M357,40.1V17.3l9.8,9.8l9.7,9.7l9.8-9.7l9.7-9.8v22.8v22.7h-4.5H387V52.3c0-5.8-0.4-10.5-0.8-10.5
		s-2.6,1.8-4.7,4s-4.4,4-4.9,4c-0.6,0-3.2-2.1-5.8-4.7l-4.8-4.7v11.2v11.2h-4.5H357V40.1z"/>
</g>
<g id="layer101_1_">
	<path class="st1" d="M22.5,71.8l-7.9-8l2.9-3l2.9-3L12.7,50L5,42.2l2.9-2.8c1.6-1.6,2.7-3.4,2.5-4s0.9-2.5,2.6-4.1l3-2.9l3,2.9
		l3,2.9l8.5-8.4l8.5-8.4l-2.5-2.6c-1.4-1.4-2.5-3.1-2.5-3.6c0-1.1,5.4-5.4,6.7-5.4c0.4,0,2-1.2,3.5-2.7l2.9-2.7l8.1,8.2l8.2,8.1
		l-2.9,3.1l-2.9,3l7.2,7.3c4,4,7.2,7.7,7.2,8.3s-0.9,1.9-2,2.9s-2,2.6-2,3.5s-1.4,2.9-3,4.5l-3,2.9l-3-2.9l-3-2.9l-8.5,8.4l-8.4,8.4
		l3.2,2.7l3.2,2.7l-2.9,3.1c-1.7,1.7-3.7,3.1-4.6,3.1s-2.7,1.1-4,2.5s-2.6,2.5-2.9,2.5C30.7,79.8,26.9,76.2,22.5,71.8z"/>
</g>
<g id="layer102">
	<path class="st2" d="M22.5,71.8l-7.9-8l2.9-3l2.9-3L12.7,50L5,42.2l3-2.9l3-2.9l8,7.9l8,7.9L24.3,55l-2.7,2.8l8.1,8.3l8.1,8.2
		l-3.3,2.8c-1.8,1.5-3.4,2.7-3.7,2.7C30.6,79.8,26.9,76.2,22.5,71.8z"/>
	<path class="st2" d="M41.4,72.1c2.9-3.2,2.9-3.3,1.1-5.5l-1.9-2.3l2.4,2.3l2.5,2.2L42,72.1l-3.5,3.2L41.4,72.1z"/>
	<path class="st2" d="M47.2,54.3l8.7-8.9l3.1,2.9l3,2.9l3.3-2.9l3.2-3l-3.2,3.5L62,52.2l-3-2.9l-3-2.9l-8.8,8.4l-8.7,8.5L47.2,54.3z
		"/>
	<path class="st2" d="M37.1,49.3l3-5.4L33,43.6l-7.1-0.3l9.7-9.5c8-7.8,9.3-8.8,7.4-5.5c-1.3,2.2-2.7,4.4-3.2,5
		c-2.3,2.6-0.7,3.5,6.4,3.5h7.3l-9,9c-4.9,5-9.3,9-9.7,9C34.3,54.8,35.4,52.3,37.1,49.3z"/>
	<path class="st2" d="M59.1,36.4L51,28.3l2.7-2.8l2.8-2.7l-8.2-8.3l-8.1-8.2l3.5-2.9l3.5-2.9l8.1,8.1l8.1,8.1l-2.9,3.1l-2.9,3
		l7.2,7.3c4,4,7.2,7.6,7.2,8.1c0,0.4-1.1,2.1-2.4,3.6l-2.3,2.8L59.1,36.4z"/>
	<path class="st2" d="M10,35c0-0.5,1.4-2.1,3-3.7l3-2.9l3,2.9l3,2.9l8.5-8.4l8.5-8.4l-2.8-3.1l-2.7-3l3.3,3l3.3,2.9l-9,9l-9,9
		L19,32.3l-3.1-3l-3,3.3C11.3,34.4,10,35.5,10,35z"/>
</g>
<g id="layer103">
	<path class="st2" d="M22.5,71.8l-7.9-8l2.9-3l2.9-3L12.7,50L5,42.2l3.2-2.9l3.3-3l-2.8,3l-2.7,3l7.7,7.7l7.7,7.8l-2.9,3l-2.9,3.1
		l7.7,7.6l7.6,7.7l2.9-2.7c1.5-1.5,3.1-2.7,3.5-2.7s-0.8,1.4-2.6,3c-1.9,1.7-3.6,3-3.9,3C30.6,79.8,26.9,76.2,22.5,71.8z"/>
	<path class="st2" d="M41.4,72.1c2.9-3.2,2.9-3.3,1.1-5.5l-1.9-2.3l2.4,2.3l2.5,2.2L42,72.1l-3.5,3.2L41.4,72.1z"/>
	<path class="st2" d="M47.2,54.3l8.7-8.9l3.1,2.9l3,2.9l3.3-2.9l3.2-3l-3.2,3.5L62,52.2l-3-2.9l-3-2.9l-8.8,8.4l-8.7,8.5L47.2,54.3z
		"/>
	<path class="st3" d="M37.1,49.3l3-5.4L33,43.6l-7.1-0.3l9.7-9.5c8-7.8,9.3-8.8,7.4-5.5c-1.3,2.2-2.7,4.4-3.2,5
		c-2.3,2.6-0.7,3.5,6.4,3.5h7.3l-9,9c-4.9,5-9.3,9-9.7,9C34.3,54.8,35.4,52.3,37.1,49.3z"/>
	<path class="st2" d="M67,44.1c0-0.5,1.2-2,2.8-3.4l2.7-2.4l-2.5,3c-1.4,1.7-2.6,3.2-2.7,3.4C67.1,44.9,67,44.7,67,44.1z"/>
	<path class="st2" d="M10,35c0-0.5,1.4-2.1,3-3.7l3-2.9l3,2.9l3,2.9l8.5-8.4l8.5-8.4l-2.8-3.1l-2.7-3l3.3,3l3.3,2.9l-9,9l-9,9
		L19,32.3l-3.1-3l-3,3.3C11.3,34.4,10,35.5,10,35z"/>
	<path class="st2" d="M57.4,23.7c-0.3-0.6,0.7-2.4,2.2-4l2.8-3l-7.7-7.6l-7.6-7.7l-2.9,2.7c-1.5,1.5-3.1,2.7-3.5,2.7
		s0.9-1.4,2.8-3.2l3.6-3.1l8.2,8.1l8.1,8.1l-2.8,3c-1.5,1.6-2.5,3.4-2.2,4c0.4,0.6,0.5,1.1,0.2,1.1S57.8,24.3,57.4,23.7z"/>
</g>
</svg>
