<?xml version="1.0" encoding="utf-8"?>
<!-- Generator: Adobe Illustrator 22.0.1, SVG Export Plug-In . SVG Version: 6.00 Build 0)  -->
<svg version="1.1" id="Layer_1" xmlns="http://www.w3.org/2000/svg" xmlns:xlink="http://www.w3.org/1999/xlink" x="0px" y="0px"
	 viewBox="0 0 399 81.8" style="enable-background:new 0 0 399 81.8;" xml:space="preserve">
<style type="text/css">
	.st0{fill:#FFFFFF;}
	.st1{fill:#584B82;}
</style>
<g id="layer101">
	<path class="st0" d="M67.7,51.1L53,36.3v13.3v13.2h-4.5H44V38.7V14.6l14.8,14.1l14.7,14.1l0.3-12l0.3-12h4.4H83v23.5
		c0,12.9-0.1,23.5-0.3,23.5C82.6,65.8,75.9,59.2,67.7,51.1z"/>
	<path class="st0" d="M2,53.3v-9.5h3.2h3.2l-3.2-3.3C2.1,37.3,2,37,2,28v-9.2h15.5H33v4.5v4.5H22H11v4v4h8h8v4.5v4.5h-8h-8v4v4h11
		h11v5v5H17.5H2V53.3z"/>
	<path class="st0" d="M94,53.3v-9.5h3.2h3.2l-3.2-3.3C94.1,37.3,94,37,94,28v-9.2h15.5H125v4.5v4.5h-11h-11v4v3.9l8.3,0.3l8.2,0.3
		l0.3,4.3l0.3,4.2h-8.5H103v4v4h11h11v5v5h-15.5H94V53.3z"/>
	<path class="st0" d="M136,53.3v-9.5h3.2h3.2l-3.2-3.3C136.1,37.3,136,37,136,28v-9.2h12.9c11.7,0,13.1,0.2,16.2,2.3
		c4.1,2.8,5.9,6,5.9,11c0,4.5-1.3,7.4-4.7,10.2l-2.5,2.1l4.6,9.2l4.6,9.2h-5.4h-5.4l-4.6-9l-4.7-9H149h-4v9v9h-4.5H136V53.3z
		 M160.8,34.6c1.6-1.6,1.5-3.3-0.4-5.2c-1.1-1.2-3.5-1.6-8.5-1.6H145v4v4h7.3C156.6,35.8,160.1,35.3,160.8,34.6z"/>
	<path class="st0" d="M195.9,61.4c-6.6-1.8-10.4-4.9-13.5-11.1c-5.5-11.3-1.6-23.1,9.5-28.8c5-2.4,6.5-2.7,16.3-2.7H219v4.5v4.5
		h-9.8c-11.3,0-15.4,1.6-18.4,7.1c-2.2,4.1-2.3,7.1-0.3,10.9c2.7,5.2,6.1,7,13.1,7h6.4V49c0-2.7-0.7-4.5-2.1-5.8
		c-1.2-1-3-3.1-4.1-4.6l-1.9-2.8h8.5h8.6v13.5v13.5l-9.2-0.1C204.7,62.7,198.4,62.1,195.9,61.4z"/>
	<path class="st0" d="M242,54v-8.8l-7-6.9l-7-6.9v-6.6v-6.5l9.4,9.4l9.3,9.3l8.8-9.1c4.8-5,9.2-9.1,9.6-9.1c0.5,0,0.9,2.8,0.9,6.3
		v6.3l-7,6.9l-7,6.9V54v8.8h-5h-5L242,54L242,54z"/>
	<path class="st0" d="M274,40.1V17.3l9.8,9.8l9.7,9.7l9.8-9.7l9.7-9.8v22.8v22.7h-4.5H304V52.3c0-5.8-0.4-10.5-0.8-10.5
		s-2.6,1.8-4.7,4s-4.4,4-4.9,4c-0.6,0-3.2-2.1-5.8-4.7l-4.8-4.7v11.2v11.2h-4.5H274V40.1z"/>
</g>
<g id="layer101_1_">
	<path class="st0" d="M348.5,72.8l-7.9-8l2.9-3l2.9-3l-7.7-7.8l-7.7-7.8l2.9-2.8c1.6-1.6,2.7-3.4,2.5-4c-0.2-0.6,0.9-2.5,2.6-4.1
		l3-2.9l3,2.9l3,2.9l8.5-8.4l8.5-8.4l-2.5-2.6c-1.4-1.4-2.5-3.1-2.5-3.6c0-1.1,5.4-5.4,6.7-5.4c0.4,0,2-1.2,3.5-2.7l2.9-2.7l8.1,8.2
		l8.2,8.1l-2.9,3.1l-2.9,3l7.2,7.3c4,4,7.2,7.7,7.2,8.3s-0.9,1.9-2,2.9s-2,2.6-2,3.5s-1.4,2.9-3,4.5l-3,2.9l-3-2.9l-3-2.9l-8.5,8.4
		l-8.4,8.4l3.2,2.7l3.2,2.7l-2.9,3.1c-1.7,1.7-3.7,3.1-4.6,3.1s-2.7,1.1-4,2.5s-2.6,2.5-2.9,2.5C356.7,80.8,352.9,77.2,348.5,72.8z"
		/>
</g>
<g id="layer102">
	<path class="st0" d="M348.5,72.8l-7.9-8l2.9-3l2.9-3l-7.7-7.8l-7.7-7.8l3-2.9l3-2.9l8,7.9l8,7.9l-2.7,2.8l-2.7,2.8l8.1,8.3l8.1,8.2
		l-3.3,2.8c-1.8,1.5-3.4,2.7-3.7,2.7C356.6,80.8,352.9,77.2,348.5,72.8z"/>
	<path class="st0" d="M367.4,73.1c2.9-3.2,2.9-3.3,1.1-5.5l-1.9-2.3l2.4,2.3l2.5,2.2l-3.5,3.3l-3.5,3.2L367.4,73.1z"/>
	<path class="st0" d="M373.2,55.3l8.7-8.9l3.1,2.9l3,2.9l3.3-2.9l3.2-3l-3.2,3.5l-3.3,3.4l-3-2.9l-3-2.9l-8.8,8.4l-8.7,8.5
		L373.2,55.3z"/>
	<path class="st0" d="M363.1,50.3l3-5.4l-7.1-0.3l-7.1-0.3l9.7-9.5c8-7.8,9.3-8.8,7.4-5.5c-1.3,2.2-2.7,4.4-3.2,5
		c-2.3,2.6-0.7,3.5,6.4,3.5h7.3l-9,9c-4.9,5-9.3,9-9.7,9C360.3,55.8,361.4,53.3,363.1,50.3z"/>
	<path class="st0" d="M385.1,37.4l-8.1-8.1l2.7-2.8l2.8-2.7l-8.2-8.3l-8.1-8.2l3.5-2.9l3.5-2.9l8.1,8.1l8.1,8.1l-2.9,3.1l-2.9,3
		l7.2,7.3c4,4,7.2,7.6,7.2,8.1c0,0.4-1.1,2.1-2.4,3.6l-2.3,2.8L385.1,37.4z"/>
	<path class="st0" d="M336,36c0-0.5,1.4-2.1,3-3.7l3-2.9l3,2.9l3,2.9l8.5-8.4l8.5-8.4l-2.8-3.1l-2.7-3l3.3,3l3.3,2.9l-9,9l-9,9
		l-3.1-2.9l-3.1-3l-3,3.3C337.3,35.4,336,36.5,336,36z"/>
</g>
<g id="layer103">
	<path class="st0" d="M348.5,72.8l-7.9-8l2.9-3l2.9-3l-7.7-7.8l-7.7-7.8l3.2-2.9l3.3-3l-2.8,3l-2.7,3l7.7,7.7l7.7,7.8l-2.9,3
		l-2.9,3.1l7.7,7.6l7.6,7.7l2.9-2.7c1.5-1.5,3.1-2.7,3.5-2.7c0.4,0-0.8,1.4-2.6,3c-1.9,1.7-3.6,3-3.9,3
		C356.6,80.8,352.9,77.2,348.5,72.8z"/>
	<path class="st0" d="M367.4,73.1c2.9-3.2,2.9-3.3,1.1-5.5l-1.9-2.3l2.4,2.3l2.5,2.2l-3.5,3.3l-3.5,3.2L367.4,73.1z"/>
	<path class="st0" d="M373.2,55.3l8.7-8.9l3.1,2.9l3,2.9l3.3-2.9l3.2-3l-3.2,3.5l-3.3,3.4l-3-2.9l-3-2.9l-8.8,8.4l-8.7,8.5
		L373.2,55.3z"/>
	<path class="st1" d="M363.1,50.3l3-5.4l-7.1-0.3l-7.1-0.3l9.7-9.5c8-7.8,9.3-8.8,7.4-5.5c-1.3,2.2-2.7,4.4-3.2,5
		c-2.3,2.6-0.7,3.5,6.4,3.5h7.3l-9,9c-4.9,5-9.3,9-9.7,9C360.3,55.8,361.4,53.3,363.1,50.3z"/>
	<path class="st0" d="M393,45.1c0-0.5,1.2-2,2.8-3.4l2.7-2.4l-2.5,3c-1.4,1.7-2.6,3.2-2.7,3.4C393.1,45.9,393,45.7,393,45.1z"/>
	<path class="st0" d="M336,36c0-0.5,1.4-2.1,3-3.7l3-2.9l3,2.9l3,2.9l8.5-8.4l8.5-8.4l-2.8-3.1l-2.7-3l3.3,3l3.3,2.9l-9,9l-9,9
		l-3.1-2.9l-3.1-3l-3,3.3C337.3,35.4,336,36.5,336,36z"/>
	<path class="st0" d="M383.4,24.7c-0.3-0.6,0.7-2.4,2.2-4l2.8-3l-7.7-7.6l-7.6-7.7l-2.9,2.7c-1.5,1.5-3.1,2.7-3.5,2.7
		c-0.4,0,0.9-1.4,2.8-3.2l3.6-3.1l8.2,8.1l8.1,8.1l-2.8,3c-1.5,1.6-2.5,3.4-2.2,4c0.4,0.6,0.5,1.1,0.2,1.1
		C384.3,25.8,383.8,25.3,383.4,24.7z"/>
</g>
</svg>